<?xml version="1.0" encoding="UTF-8"?>
<svg id="BACKGROUND" xmlns="http://www.w3.org/2000/svg" viewBox="0 0 112.71 109.96">
  <defs>
    <style>
      .cls-1 {
        fill: #fff;
        stroke-width: 0px;
      }
    </style>
  </defs>
  <path class="cls-1" d="M46.09,81.24c-.47.59-.98,1.17-1.42,1.8-1.08,1.54-1.64,3.29-1.94,5.13-.08.47-.25.69-.68.86-2.01.8-4.07,1.28-6.24,1.21-3.16-.1-5.81-1.35-7.85-3.75-.86-1.01-1.56-2.15-2.34-3.22-1.29-1.77-2.82-3.27-4.84-4.21-1.61-.75-3.29-.94-5.01-.47-.86.24-1.03.78-.53,1.52.48.72,1.14,1.26,1.88,1.66,1.34.72,2.33,1.79,3.21,2.99,1.41,1.93,2.54,4.01,3.46,6.23.82,1.96,2.27,3.44,4.13,4.48,2.2,1.23,4.6,1.68,7.09,1.78,2.37.1,4.71-.16,7.03-.57.07-.01.15,0,.25-.01,0,.12.02.22.02.32.02,2.95.04,5.9.06,8.86,0,.42.02.85.01,1.27-.03,1.67-1.13,2.74-2.8,2.79-.91.03-1.73-.31-2.55-.61-2.31-.84-4.55-1.82-6.72-2.96-3.89-2.04-7.5-4.48-10.82-7.35-3.05-2.64-5.79-5.57-8.22-8.79-1.7-2.26-3.21-4.63-4.56-7.11-1.7-3.15-3.09-6.43-4.16-9.85-1.02-3.24-1.72-6.54-2.14-9.91C.13,60.88-.02,58.41,0,55.93c.04-4.13.51-8.22,1.44-12.26.69-3,1.61-5.92,2.78-8.76,1.6-3.89,3.62-7.55,6.04-10.99,1.9-2.7,4.02-5.22,6.37-7.54,3.44-3.41,7.25-6.35,11.45-8.78,3.42-1.98,7-3.6,10.76-4.82,3.55-1.16,7.19-1.96,10.9-2.39,2.82-.33,5.65-.46,8.49-.36,2.79.1,5.57.39,8.32.9,3.82.7,7.53,1.78,11.12,3.25,3.9,1.6,7.59,3.61,11.04,6.04,3.1,2.18,5.97,4.65,8.58,7.41,3.02,3.19,5.63,6.68,7.84,10.48,2,3.44,3.61,7.05,4.83,10.84,1.11,3.42,1.93,6.9,2.3,10.48.24,2.33.43,4.68.44,7.02.02,5.2-.7,10.31-2.12,15.32-1.15,4.04-2.72,7.92-4.74,11.6-2.22,4.06-4.9,7.8-8.04,11.21-3.29,3.58-6.98,6.68-11.07,9.31-2.79,1.79-5.71,3.34-8.79,4.58-1.17.47-2.34.96-3.55,1.32-1.13.34-2.25.26-3.17-.63-.51-.49-.76-1.12-.76-1.81,0-4.77,0-9.54.04-14.31.02-2.34-.05-4.65-.77-6.9-.58-1.81-1.46-3.44-2.87-4.75-.03-.02-.04-.06-.1-.13.77-.11,1.5-.21,2.24-.31,3.25-.46,6.42-1.22,9.44-2.51,3.56-1.51,6.61-3.71,8.95-6.82,2-2.66,3.26-5.67,4.02-8.9.47-1.99.74-4.01.88-6.05.16-2.36.19-4.71-.18-7.06-.65-4.08-2.33-7.69-5.05-10.8-.33-.38-.38-.67-.22-1.14.76-2.19,1.01-4.47.9-6.78-.12-2.52-.68-4.95-1.59-7.3-.1-.25-.27-.28-.49-.3-1.41-.18-2.79.07-4.14.42-2.36.61-4.57,1.62-6.68,2.82-1.38.79-2.72,1.65-4.09,2.47-.12.07-.32.1-.46.06-2.27-.61-4.56-1.09-6.89-1.37-1.31-.16-2.62-.32-3.93-.35-2.16-.05-4.32-.08-6.48.02-3.46.17-6.86.76-10.2,1.67-.26.07-.46.07-.7-.09-1.97-1.3-3.99-2.51-6.13-3.51-2.23-1.04-4.51-1.91-6.99-2.14-.57-.05-1.15-.02-1.72.02-.16.01-.4.18-.46.33-.89,2.31-1.45,4.7-1.57,7.19-.11,2.27.1,4.51.84,6.66.22.63.1.99-.31,1.48-2.37,2.78-3.94,5.97-4.7,9.54-.44,2.03-.55,4.1-.49,6.18.07,2.3.27,4.58.71,6.83.51,2.58,1.31,5.08,2.56,7.4,1.77,3.28,4.25,5.91,7.43,7.86,3.4,2.08,7.13,3.22,11.02,3.91,1.27.22,2.54.4,3.77.59Z"/>
</svg>